<?xml version="1.0" encoding="UTF-8"?>
<svg version="1.1" viewBox="0 0 1280 1024" width="1280" height="1024" xmlns="http://www.w3.org/2000/svg">
<path transform="translate(591,179)" d="m0 0 6 5 4 5 14 11 10 5v-11l5 2 10 7 12 5 36 5 24 6 17 6 5-1 11-12 11-9 14-8 15-5 6-1h21l14 3 15 6 14 9 10 9 7 7 7 11 1 4-9-3 4 14 1 8v18l-3 15-5 14-7 13-8 10-10 10 1 9 3 16 1 12v11l-2 19-4 17-7 19-10 19-12 17-11 12-5 6-8 7-15 12-19 12-16 8-14 6-21 7-23 5-26 3h-30l-26-3-22-5-27-9-23-11-16-10-16-12-13-12-9-9-13-17-9-15-9-19-6-20-3-18v-28l3-19 3-10-4-2-9-9-9-13-8-17-4-17-1-17 2-16 3-10-9 2 6-12 11-12 8-7 14-8 15-6 15-3h20l16 4 16 8 8 6 10 9 9 9 24-8h4l4 6 9 5 12 2h8l-10-5-6-5-5-9-1-5v-13l3-13zm-110 53-15 4-11 6-9 9-6 11v3l7-1-1 2v19l4 13 3 6h2l7-11 8-10 9-10 10-10 17-13 10-7-5-5-12-5-5-1zm305 0-13 4-9 6 4 4 13 9 11 9 11 10 7 8 10 13 6 9 3-3 4-10 2-10v-16h6l-4-10-7-9-11-8-10-4-10-2zm-154 120-14 4-16 8-10 8-11 11-8 13-5 12-4 15-1 8v23l3 14 8 16 8 9 10 7 12 6 15 4 7 1h29l18-4 12-5 11-7 9-9 6-10 4-10 2-9 1-18-2-18-4-14-5-12-7-11-11-12-11-8-16-8-13-4z" fill="#C99159"/>
<path transform="translate(366,235)" d="m0 0h21l2 10 3 4v26l3 17 5 15 9 17 8 10 7 8-2 13-1 7-1 18 1 17 4 22 8 24 12 23 12 17 13 15 9 9 11 9 12 9 18 11 18 9v2l-9 4-5 4-4 6-3 10-17-2-27-6-26-8-25-10-22-11-21-13-13-10-15-13-7-7-10-14-6-14-2-9v-14l4-13 8-11 12-9 14-7 4-5 1-2v-10l-4-8-9-10-9-8-12-9-10-8-10-9-8-10-5-10-2-9v-13l3-11 7-14 11-12 8-6 12-6 16-4z" fill="#90D3F4"/>
<path transform="translate(869,327)" d="m0 0 3 3 6 9 9 10v2l4 2 9 9 8 7 10 9 11 12 7 11 4 11 1 5v18l-4 16-5 12-7 13-9 12-9 10-10 9-14 9-14 6-13 3-8 1h-22l-29-4-10-2 5-5 15-14 10-10 13-17 8-13 8-15 7-19 4-15 3-22v-21l-3-22-1-5 8-8z" fill="#90D3F4"/>
<path transform="translate(586,141)" d="m0 0h28l21 2 29 5 40 10 41 11 33 8v2l-16 6-15 9-14 12-4 5-11-3-23-6-24-4-16-2-14-7-10-8h-10l-6 3-8-7-9-10-3-1h-7l-6 3-4 9-3 13-1 13-8 3-13 4-4-2-13-12-11-7-10-5 1-8 6-12 7-7 12-7 18-6 16-3z" fill="#90D3F4"/>
<path transform="translate(438,696)" d="m0 0h22l11 3 8 5 8 9 5 12 2 13-1 17-4 15-6 12-7 8-11 7-9 3h-10l-16-4-10-5-10-8-7-11-3-10v-22l4-15 6-11 8-9 10-6zm5 31-6 4-5 12v12l5 10 6 4 6 1 7-3 7-8 2-13-3-12-6-5-5-2z" fill="#552C06"/>
<path transform="translate(904,693)" d="m0 0h13l11 3 10 5 10 9 3 6 1 4v11l-3 9-7 8-5 5 1 5 5 5 11 10 3 6v13l-5 6-2 1h-10l-6-4-6-7-6-10-6-7-2-1h-7l-2 3-1 17-3 6-3 3-10 1-7-3-4-5-3-9-1-7v-29l3-29 4-13 5-6 12-5zm7 32-2 3v8l5 1 4-6-1-5z" fill="#552C06"/>
<path transform="translate(633,693)" d="m0 0h12l16 3 10 5 5 6 1 3v9l-5 10-10 10-1 5 7 6 8 6 5 7 2 6v10l-4 8-7 7-9 4-9 2h-16l-13-3-8-6-5-10-3-15v-50l3-10 4-6 6-4zm8 27v5l4-1v-4zm4 47-3 5 1 3 5-1 1-6z" fill="#552C05"/>
<path transform="translate(816,696)" d="m0 0h11l7 4 7 8 5 13 12 51 1 7v8l-3 7-4 4-6 2-7-1-6-5-4-17-5-1h-8l-6 2-8 16-8 6-6 1-6-2-4-6v-10l11-35 12-36 5-9 5-5zm4 40-2 3-1 11 3 1 2-4v-11z" fill="#552C06"/>
<path transform="translate(726,694)" d="m0 0h24l8 3 5 5 1 2v9l-6 7-6 2-22 1 1 5 4 3 12 2 6 5 1 2v9l-5 6-10 3-6 1 1 5 6 4 16 2 7 2 4 5v9l-3 6-4 4-7 2h-15l-18-1-8-3-5-5-4-6-4-13-1-7v-46l3-10 4-6 8-5z" fill="#552C06"/>
<path transform="translate(582,695)" d="m0 0h7l6 5 1 9-4 15-5 10-10 13-9 11-4 8v20l-3 10-6 7-5 2-7-1-5-6-2-6-1-23-3-10-7-11-12-16-8-16-1-7 2-8 5-4h10l8 5 6 9 7 20 4 6 3 1 5-5 15-26 9-10z" fill="#562C06"/>
<path transform="translate(541,559)" d="m0 0 10 1 30 12 12 6 6 7 2 5 1 6v16l-6 2-19 5-23 11-11 5-4 1h-10l-6-4-2-3v-16l3-17 4 2 1 3h5v-9l-4-16 1-9 5-6z" fill="#2C9CC9"/>
<path transform="translate(734,559)" d="m0 0 8 1 7 6 1 2v10l-4 16v6l4 1 5-6 2 3 3 20v9l-3 6-6 3h-10l-13-5-19-10-19-6-11-2v-21l4-9 5-5 6-4 36-14z" fill="#2C9CC9"/>
<path transform="translate(632,380)" d="m0 0h16l18 4 6 4 2 5-2 9-7 8-9 6-8 5-1 2v37l3 5 9 3 23 1 2 2-1 4-5 4-13 4h-8l-10-3-5-3-5 1-8 4-5 1h-8l-9-2-9-5-2-4 2-3 23-1 9-3 3-3v-40l-5-4-10-6-8-7-3-6v-9l5-5 14-4z" fill="#572E07"/>
<path transform="translate(366,696)" d="m0 0h9l5 4 3 9 2 20v23l-4 24-4 10-6 7-10 5h-19l-9-2-9-6-4-8v-10l3-6 6-4 8 1 6 5 3 4 5-1 3-3 1-5-1-22v-23l2-10 4-8z" fill="#562C06"/>
<path transform="translate(638,560)" d="m0 0 19 1 10 3 5 6-1 12-1 16 2 20v6l-5 6-4 1-4-9-5-17-5-1-2 14-3 15-1 1-17-1-9-2-6-5-1-2 1-13v-28l-1-13 5-6 3-1 5 10 5 16 2 1 2-1 5-27z" fill="#2D9DCA"/>
<path transform="translate(555,312)" d="m0 0h12l8 5 4 7 1 9-3 8-7 6-5 2h-8l-8-4-5-6-2-6 1-9 4-7z" fill="#542B05"/>
<path transform="translate(714,312)" d="m0 0h11l7 4 4 5 2 5v9l-3 6-5 5-7 3h-7l-7-3-5-5-3-6v-10l4-7 6-5z" fill="#542B05"/>
</svg>
