<?xml version="1.0" encoding="UTF-8"?>
<svg version="1.1" viewBox="0 0 1280 1292" width="1280" height="1292" xmlns="http://www.w3.org/2000/svg">
<path transform="translate(567,74)" d="m0 0 3 1 8 10 6 6v2l4 2 7 7 13 10 13 8 11 6 1-17 2-7 7 6 12 9 16 9 16 6 14 2 36 4 36 7 30 8 27 9 10 4 5-1 8-10 14-15 8-7 13-10 16-10 16-8 21-7 14-3 8-1h29l20 3 21 6 18 8 15 8 17 12 11 9 9 8 7 8 11 14 9 16 1 4-6-1-13-6 6 18 4 23 1 23-2 23-5 23-7 20-8 16-8 14-9 12-11 13-10 10-7 6 6 24 4 25 1 10v44l-3 24-5 24-8 26-9 22-8 17-11 19-14 21-10 13-12 14-11 12-17 17-11 9-13 11-18 13-19 12-21 12-22 11-29 12-30 10-36 9-36 6-33 3h-54l-33-3-36-6-29-7-29-9-28-11-29-14-17-9-19-12-20-14-16-13-11-9-29-29-9-11-12-15-14-21-12-21-12-25-10-28-6-24-4-23-2-25v-20l2-24 4-24 5-20-1-5-10-9-11-11-13-17-9-15-10-21-7-22-4-22-1-11v-22l2-18 5-21 3-9-15 6h-3l3-9 9-15 9-11 11-12 11-9 14-10 18-10 20-8 20-6 17-3 10-1h23l20 3 17 5 21 9 17 10 13 10 14 14 8 7 12 12 6-1 31-11 14-4 4 1 6 9 8 7 10 5 11 3 7 1h27l2-1-14-3-14-7-7-6-8-11-5-12-1-5v-28l4-19zm-209 104-25 5-14 5-15 9-10 9-8 8-8 13-6 14v1h14l-2 14v14l3 19 6 17 6 11h3l12-18 12-16 11-13 12-13 12-12 8-7 17-14 18-13 18-12-5-5-13-8-13-5-15-3zm592 0-15 3-13 5-14 8-5 5 16 10 19 14 16 13 12 11 10 9 14 15 9 11 10 13 14 21 1 2 3-1 9-19 5-21v-28l-2-8 5 1h9l-1-6-7-14-9-12-10-10-14-9-13-6-19-5-12-2zm-296 233-17 3-18 6-23 11-11 7-12 9-13 12-7 7-12 16-10 18-8 19-5 17-4 21-2 22v19l2 19 4 17 6 16 9 16 9 11 11 11 14 10 17 9 20 7 22 5 16 2h42l22-3 19-5 16-6 16-8 13-9 12-11 10-12 8-14 5-11 5-16 3-19v-38l-4-27-6-22-8-19-9-17-12-16-12-13-10-9-17-12-23-12-19-7-13-3-8-1z" fill="#9A9A9A"/>
<path transform="translate(134,184)" d="m0 0h36v9l3 10 7 8 1 2-2 18v24l2 19 5 23 8 24 11 23 12 19 13 16 12 13-1 8-5 30-1 10-1 27 1 23 3 25 6 28 8 26 11 27 11 22 12 20 11 16 10 13 9 11 18 20 14 14 8 7 13 11 20 15 15 10 18 11 22 12 21 10 1 2-13 4-9 6-8 7-7 10-4 11-2 9h-8l-37-6-39-9-31-9-32-11-27-11-24-11-20-10-23-13-22-14-18-13-13-10-13-11-12-11-11-10-7-8-10-13-10-16-7-15-5-16-2-10-1-15 2-18 5-15 7-13 9-11 11-10 14-9 24-12 8-7 5-9 1-4v-10l-3-10-6-11-8-10-14-14-11-9-13-10-21-16-11-9-14-12-7-7-11-14-9-15-5-13-3-16v-18l4-20 8-19 10-16 12-14 7-7 13-10 16-9 16-6 15-4 19-3z" fill="#ccc"/>
<path transform="translate(1109,363)" d="m0 0 3 4 10 16 11 13 9 10 15 15 8 7 10 9 8 7 12 11 13 12 10 11 10 13 9 15 6 14 4 15 1 7v27l-4 22-8 24-12 25-11 18-13 17-9 10-7 8-8 8-11 9-13 10-15 9-19 9-19 6-19 4-21 2h-24l-25-2-40-6-21-4 2-4 10-8 14-12 17-16 14-15 9-11 14-18 15-23 10-18 8-16 9-21 9-27 6-25 4-27 1-11v-42l-3-26-4-21v-6l13-13 11-14z" fill="#ccc"/>
<path transform="translate(564,1)" d="m0 0h42l37 3 40 6 43 9 55 14 63 17 88 22 1 2-24 8-16 8-14 8-19 14-15 14-11 11-32-10-32-8-33-6-38-4-12-3-16-8-10-7-10-9-7-4-4-1h-10l-10 4-4 4-4-2-10-9-11-12-5-7-8-5-11-2-9 2-9 6-4 6-6 19-4 22-1 21-30 9-11 4-5-1-17-17-8-7-12-9-15-9-17-9 1-9 4-12 7-13 9-10 10-9 16-9 19-8 25-7 22-4 17-2z" fill="#ccc"/>
<path transform="translate(278,1080)" d="m0 0h22l18 2 16 5 10 5 12 11 8 11 8 16 4 15 2 18v12l-2 20-5 21-6 16-8 15-9 11-10 9-14 9-13 5-14 2-16-1-21-5-17-7-11-7-10-8-7-6-9-13-5-10-4-13-2-12v-26l3-18 6-20 8-16 9-12 4-5 11-9 14-8 16-5zm2 61-8 4-7 9-6 15-2 9v11l4 14 7 12 8 6 10 3 11-1 9-6 5-4 6-9 4-13v-19l-4-14-4-6-7-6-12-5z" fill="#343434"/>
<path transform="translate(1179,1075)" d="m0 0h21l15 3 13 5 13 7 10 8 8 7 6 9 4 13v21l-3 12-5 9-9 10-11 10-2 5 5 10 6 7 14 11 8 8 7 14 1 4v14l-3 9-5 6-9 4h-15l-10-5-10-10-8-13-9-14-9-11-7-4-10-1-5 3-3 5-2 36-6 9-5 4-5 2h-17l-9-4-6-5-5-10-4-14-2-14v-52l3-34 4-31 5-16 6-9 5-5 9-6 11-4 10-2zm10 62-2 3-1 5v13l2 2h7l5-5 3-8v-6l-5-3z" fill="#343434"/>
<path transform="translate(651,1075)" d="m0 0h18l26 4 17 5 12 7 6 7 4 9v18l-5 13-7 9-17 17-2 4v6l5 5 9 7 10 7 5 4 8 11 5 12 1 5v15l-4 11-8 11-7 7-10 6-15 5-18 3h-17l-17-2-13-3-10-5-9-8-6-10-6-18-3-17-2-30v-53l2-19 4-15 6-11 8-8 12-5zm15 52-2 4v6h6l4-4-2-5zm6 92-4 6-1 8 1 1 8-1 4-5v-6l-5-3z" fill="#343434"/>
<path transform="translate(1009,1080)" d="m0 0h13l11 4 6 4 9 9 8 14 5 12 11 45 15 66 1 7v17l-3 10-6 8-12 6h-14l-8-4-7-8-3-10-3-18-1-5-6-1h-24l-7 2-15 30-9 10-10 5-4 1h-10l-8-4-4-5-4-11v-7l4-17 18-55 15-46 9-27 9-17 7-8 12-6zm4 78-3 4-3 16v7l2 3 4-2 4-8v-19z" fill="#343434"/>
<path transform="translate(833,1077)" d="m0 0h42l13 4 9 6 6 8 1 3v13l-4 8-9 8-7 3-5 1-40 1-2 1v6l5 7 5 3 4 1 13 1 11 4 7 8 3 8v9l-4 9-9 7-11 4-16 2-3 1v6l7 8 10 5 15 2 22 2 6 3 6 7 2 5v11l-4 11-6 8-8 5-13 3h-21l-11-1-25-1-10-2-12-6-9-9-7-14-5-16-3-17-1-9-1-20v-40l2-23 4-16 6-11 7-7 12-6 13-3z" fill="#343434"/>
<path transform="translate(551,1079)" d="m0 0h12l7 4 4 5 2 8v13l-5 19-6 16-6 11-14 18-11 14-12 14-6 9-2 8v39l-3 13-4 8-8 9-7 4-4 1h-8l-7-3-5-4-6-12-2-12-1-37-4-16-8-15-14-19-12-17-10-15-9-17-3-11v-15l4-9 5-5 7-3h12l10 4 6 4 7 7 7 11 6 17 8 24 5 8 6 5 7-1 7-9 9-15 15-27 9-13 11-12 8-5z" fill="#343434"/>
<path transform="translate(473,814)" d="m0 0 10 1 15 5 60 24 11 6 5 4 8 11 4 9 2 11v33l-1 1-22 4-24 7-15 6-23 12-16 8-15 6-9 2h-14l-10-4-7-8-2-7v-12l5-37 3-12 5 5 6 7 6 1 3-5-1-13-8-31v-13l4-9 7-7 8-4z" fill="#9A9A9A"/>
<path transform="translate(849,814)" d="m0 0 12 2 8 6 6 8 2 6v10l-8 31-1 6v10l1 4h6l5-5 6-7h2l5 25 3 26-1 12-4 8-8 6-7 2h-13l-15-4-18-8-23-12-14-7-24-8-23-5-8-1v-37l3-11 5-10 8-9 11-7 68-27 9-3z" fill="#9A9A9A"/>
<path transform="translate(651,466)" d="m0 0h24l18 3 22 6 9 6 3 5 1 4v9l-3 9-6 8-10 10-13 8-16 9-4 6-1 4v67l5 10 10 5 12 3 8 1h34l4 4v6l-8 7-13 6-11 3-8 1h-10l-15-3-10-4-10-7-11 7-12 5-11 2h-11l-16-3-12-5-11-7-1-2v-6l4-4h32l19-3 10-4 6-7 2-6v-65l-3-8-7-6-15-8-11-8-8-7-6-9-3-8v-11l4-8 5-4 10-4 26-6z" fill="#353535"/>
<path transform="translate(135,1080)" d="m0 0h7l9 3 7 8 3 9 3 22 3 34v20l-4 36-5 24-6 16-7 11-8 7-11 6-9 3h-32l-15-3-10-4-11-8-6-9-3-8-1-10 3-14 6-8 5-4 7-2 10 1 10 6 9 11 1 2h7l7-4 4-9v-27l-2-37v-21l2-19 5-15 8-11 6-4z" fill="#353535"/>
<path transform="translate(658,817)" d="m0 0h24l22 3 10 4 8 7 3 7-1 11-3 22v33l2 18 2 10-1 9-4 6-8 6-5 1-5-10-7-22-5-19-5-2-4 2-3 13-8 41-1 2h-21l-23-3-10-4-8-7-3-6v-9l3-18 1-12v-24l-3-26-1-5v-8l3-6 9-8 4-1 6 12 9 27 4 13h7l2-3 9-52z" fill="#9A9A9A"/>
<path transform="translate(810,333)" d="m0 0h14l11 4 9 7 7 11 2 7v14l-4 11-7 9-11 7-7 2h-14l-11-4-9-7-7-11-2-7v-14l4-11 7-9 11-7z" fill="#343434"/>
<path transform="translate(502,333)" d="m0 0h13l11 4 6 4 8 9 4 9 1 5v10l-3 10-5 8-7 7-10 5-4 1h-14l-11-4-8-6-6-8-4-10v-16l4-10 6-8 8-6z" fill="#343434"/>
</svg>
