<?xml version="1.0" encoding="UTF-8"?>
<svg version="1.1" viewBox="0 0 1280 1024" width="1280" height="1024" xmlns="http://www.w3.org/2000/svg">
<path transform="translate(600,237)" d="m0 0 13 13 11 7 2 1 2-9 9 6 12 6 29 4 24 6 11 4 5-1 9-10 12-9 12-6 10-3 16-1 17 3 12 5 12 8 10 9 7 9 3 5v2l-7-2 3 12 1 8v9l-2 13-5 15-7 12-9 10-5 5 4 22v26l-4 20-7 19-9 16-9 12-9 10-11 11-13 10-13 8-15 8-21 8-19 5-20 3-16 1h-11l-23-2-24-5-23-8-16-8-15-9-13-10-12-11-10-11-10-14-9-17-7-21-3-18v-20l3-18 1-7-10-10-7-10-6-13-4-16v-21l3-14-4 2-3-1 7-12 10-10 11-7 13-6 12-3 17-1 15 3 16 8 9 7 12 12 21-7h2l3 4v2l10 4 6 1h9l-9-4-5-5-3-4-2-8 1-14zm-91 44-12 3-9 5-7 6-5 8-1 5 5 1v17l4 11 3 3 12-16 11-12 10-9 14-10 4-4-8-5-10-3zm251 0-12 4-6 4 4 4 14 10 12 11 8 8 11 15 3 3 3-4 3-9 1-13-1-6h6l-6-12-9-8-8-4-12-3zm-127 99-13 4-13 7-11 9-9 12-6 13-4 15-1 10v10l3 16 6 12 9 10 9 6 14 5 9 2h28l16-4 12-6 10-9 4-5 5-10 3-13v-18l-3-16-5-13-7-11-9-10-10-7-12-6-11-3z" fill="#C99159"/>
<path transform="translate(409,284)" d="m0 0h22l2 8 3 3v26l4 16 6 14 9 13 7 8-3 21v19l2 16 6 21 6 14 10 17 11 14 12 12 12 11 15 10 16 9 7 4-3 2-8 5-5 8-2 6-24-4-23-6-20-7-24-11-20-12-17-13-13-12-9-12-5-11-2-8v-13l4-11 6-8 9-7 13-7 3-4 1-7-3-8-9-10-16-13-9-7-10-9-7-11-3-8v-17l5-13 8-11 11-9 11-5z" fill="#90D3F4"/>
<path transform="translate(829,360)" d="m0 0 3 3 8 11 13 13 8 7 10 9 10 12 5 10 2 7v19l-5 16-7 14-8 11-11 12-14 10-13 6-13 3h-30l-25-4 2-4 11-9 9-9 11-14 10-16 8-17 6-21 2-13v-27l-2-12v-6z" fill="#90D3F4"/>
<path transform="translate(594,206)" d="m0 0h27l24 3 29 6 49 13 31 8-2 2-12 5-12 7-12 11-4 3-19-6-20-4-19-2-10-4-12-9h-8l-3 2-4-1-11-12-2-1h-8l-5 4-4 13-2 14-8 3-10 3-12-11-14-9-4-2 1-8 6-10 9-7 11-5 15-4z" fill="#90D3F4"/>
<path transform="translate(716,551)" d="m0 0h7l6 4 2 4v7l-3 11v8l4-1 2-3h2l3 18v8l-3 5-3 2h-11l-12-5-16-8-13-4-9-2v-17l5-10 8-5z" fill="#2C9DC9"/>
<path transform="translate(557,551)" d="m0 0h8l30 12 8 5 4 6 1 3v18l-22 6-22 11-6 2h-10l-5-3-1-2v-15l2-12h3l2 3 4 1-1-10-3-15 2-5z" fill="#2C9CC9"/>
<path transform="translate(634,403)" d="m0 0h12l17 4 4 4 1 7-5 8-10 7-6 4-1 2v31l4 4 8 2h16l2 2-1 4-6 4-7 2h-9l-11-4h-4l-10 4h-9l-10-3-5-4 1-4 4-1h13l10-3 2-2v-33l-3-3-10-6-7-7-1-2v-9l4-4z" fill="#582D08"/>
<path transform="translate(638,552)" d="m0 0h13l10 2 5 5v9l-1 8v12l1 17-5 5-3-1-6-18v-3l-4 1-5 23h-14l-8-2-5-4-1-6 1-6v-23l-1-11 4-5 3-1 4 8 4 14h3z" fill="#2D9DCA"/>
<path transform="translate(701,347)" d="m0 0h9l7 4 4 8-1 9-4 6-5 3h-11l-7-5-3-7 1-9 3-5z" fill="#542905"/>
<path transform="translate(570,347)" d="m0 0h10l6 4 3 4 1 3v8l-3 6-5 4-2 1h-10l-6-4-4-5-1-7 3-8 6-5z" fill="#542905"/>
</svg>
