<?xml version="1.0" encoding="UTF-8"?>
<svg version="1.1" viewBox="0 0 1280 989" width="1280" height="989" xmlns="http://www.w3.org/2000/svg">
<path transform="translate(581,76)" d="m0 0 3 1 8 10 17 17 13 10 16 10 9 5 2-20 1-4 4 2 9 8 15 10 18 8 10 3 45 5 28 5 30 7 29 9 25 9 9-11 11-12 8-8 14-11 13-9 16-9 20-8 15-4 21-3h22l22 3 21 6 15 6 21 11 12 8 14 11 12 11 11 12 10 14 8 16-2 1-17-7 7 25 3 22v28l-3 22-6 23-10 24-9 16-10 14-11 13-15 15-4 3 4 16 5 26 2 17 1 28-2 30-4 25-6 24-9 26-11 24-10 19-13 20-10 14-13 16-11 12-9 10-8 8-8 7-15 13-16 12-16 11-21 13-26 14-27 12-27 10-26 8-30 7-30 5-28 3-16 1h-44l-36-3-33-5-31-7-30-9-29-11-20-9-24-12-20-12-18-12-19-14-14-12-12-11-23-23-9-11-12-15-14-21-10-17-8-15-11-26-9-28-6-28-3-25v-43l3-25 5-24 3-13-15-14-7-7-11-14-11-17-11-23-7-21-4-19-2-18v-22l2-18 6-25 2-7-16 7-3-1 10-19 8-11 12-14 10-9 18-13 16-9 17-8 18-6 23-5 22-2 22 1 20 4 18 6 23 11 17 11 16 15 15 15 8 7 3 3 30-11 20-6 5 1 7 10 7 6 10 5 16 4 11 1h13l9-1-15-4-12-6-10-9-7-9-5-12-2-12v-14l3-21zm-210 106-19 3-16 4-17 8-13 9-12 12-9 14-6 14v2h14l-2 14v15l3 19 6 17 7 13h2l10-16 14-19 12-14 11-12 15-15 8-7 17-14 18-13 19-12-5-5-14-8-12-5-12-3-9-1zm607 0-15 2-15 5-15 8-7 5 1 3 11 7 20 14 16 13 14 12 24 24 9 11 12 15 14 21 4 4 9-17 5-17 2-12v-21l-2-12 5 1h9l-1-5-8-16-7-10-13-13-11-7-14-7-14-4-14-3-9-1zm-307 239-14 2-20 6-22 10-16 10-13 10-12 11-7 7-10 13-8 13-8 16-6 15-6 23-3 19-1 11v32l3 20 5 18 9 19 10 14 9 10 11 9 14 9 19 9 19 6 19 4 18 2h36l24-3 24-6 15-6 16-8 14-10 13-12 10-13 8-14 7-19 4-18 1-8v-38l-3-23-5-21-8-22-10-19-9-13-9-11-15-15-13-10-20-12-20-9-20-6-13-2z" fill="#C89058"/>
<path transform="translate(153,188)" d="m0 0h13l8 1 1 13 5 10 5 5-1 12v40l3 20 5 21 8 22 11 22 11 17 10 13 11 12 5 5-1 9-4 21-2 17-1 15v27l2 24 5 30 7 26 7 20 8 20 11 22 12 20 8 12 14 19 11 13 9 10 7 8 15 15 8 7 13 11 20 15 24 16 17 10 23 12 16 8-3 2-12 5-9 6-9 9-8 16-2 12-13-1-35-6-32-7-35-10-33-11-32-13-28-13-25-13-25-15-15-10-14-10-13-10-11-9-10-9-8-7-15-15-13-17-8-13-8-16-5-15-3-15v-24l3-14 6-15 8-12 12-13 14-10 12-7 17-8 10-9 5-10v-15l-5-12-7-11-9-10-10-10-11-9-18-14-12-9-14-11-15-13-12-12-11-15-6-10-6-16-3-15v-19l3-16 7-19 9-16 10-13 8-9 11-9 11-8 19-10 19-6 23-4 9-1z" fill="#90D3F4"/>
<path transform="translate(1136,372)" d="m0 0 3 3 7 12 9 12 12 14 17 17 8 7 11 10 8 7 24 22 7 7 9 11 10 13 10 19 5 15 3 17v21l-3 20-6 21-8 20-11 21-14 21-13 16-12 13-8 8-11 9-15 11-17 10-18 8-20 6-22 4-11 1h-37l-36-4-40-7-5-1 1-3 14-11 11-10 8-7 19-19 7-8 14-17 13-18 12-19 9-16 11-22 10-26 7-23 5-22 4-28 1-13v-35l-3-29-5-28 7-7 7-8 11-14z" fill="#90D3F4"/>
<path transform="translate(579,1)" d="m0 0h41l29 2 38 5 37 7 42 10 57 15 56 15 70 17 7 2-1 2-21 7-23 11-14 9-16 12-12 11-14 14-5-1-32-10-33-8-36-6-38-4-16-6-16-10-12-11-7-4-4-1h-12l-10 5-3 3-4-2-10-9-7-7-10-13-8-5-4-1h-13l-10 5-5 6-5 12-5 20-2 14-1 20-35 11-10 3-12-12-8-7-7-7-12-9-19-11-15-8 1-8 5-15 6-11 9-11 11-9 14-8 15-7 21-7 22-5 30-4z" fill="#90D3F4"/>
<path transform="translate(869,834)" d="m0 0 10 1 8 4 7 7 4 8v16l-7 26-2 11v7l3 5h5l8-9 4-4 3 9 4 26 2 19-1 11-4 8-7 6-10 3h-9l-14-3-15-6-22-11-19-10-16-6-20-6-25-5v-36l3-13 6-11 10-10 16-8 60-24 12-4z" fill="#2B9CC9"/>
<path transform="translate(484,834)" d="m0 0 11 1 15 5 67 27 11 8 8 11 5 12 1 5v38l-29 6-30 10-31 16-16 8-18 6-6 1h-9l-10-3-6-4-4-5-2-5v-20l4-29 4-16 5 5 6 7 6 1 3-4v-10l-5-21-4-16v-13l5-10 8-7 6-3z" fill="#2B9CC9"/>
<path transform="translate(676,477)" d="m0 0 21 1 27 6 11 4 7 5 3 6 1 4v7l-3 10-8 11-9 8-11 7-18 10-5 8v73l3 6 6 5 10 4 10 2 42 1 3 3v7l-5 5-8 5-14 5-10 2h-17l-16-4-13-7-4-3-10 7-12 5-10 2h-18l-16-4-16-8-5-5v-6l4-4 5-1h36l16-4 8-4 5-8 1-4v-67l-4-9-5-4-17-9-12-9-6-5-7-10-3-7-1-8 2-9 7-8 9-4 25-6z" fill="#562A06"/>
<path transform="translate(674,837)" d="m0 0h25l22 3 10 4 8 7 3 5 1 7-4 26-1 22 1 20 4 25-2 10-6 7-9 5h-2l-8-20-8-29-2-5h-9l-5 29-6 29-1 1h-12l-23-2-15-3-10-6-6-9v-11l3-19 1-12v-22l-2-21-2-11v-10l4-7 7-6 6-2 10 25 7 25 1 4h7l3-3 9-53z" fill="#2C9CC9"/>
<path transform="translate(831,341)" d="m0 0h12l12 4 9 7 6 8 4 11v14l-4 11-6 8-7 6-9 4-4 1h-14l-11-4-9-7-7-10-3-10v-12l4-12 7-9 10-7z" fill="#542905"/>
<path transform="translate(515,341)" d="m0 0h12l10 3 9 6 7 8 4 9 1 4v15l-5 12-9 10-12 6-4 1h-14l-11-4-9-7-7-10-3-11v-10l3-10 6-10 9-7 9-4z" fill="#542905"/>
</svg>
